<?xml version="1.0" standalone="no"?>
<!DOCTYPE svg PUBLIC "-//W3C//DTD SVG 20010904//EN"
 "http://www.w3.org/TR/2001/REC-SVG-20010904/DTD/svg10.dtd">
<svg version="1.0" xmlns="http://www.w3.org/2000/svg"
 width="612.000000pt" height="612.000000pt" viewBox="0 0 612.000000 612.000000"
 preserveAspectRatio="xMidYMid meet">

<g transform="translate(0.000000,612.000000) scale(0.100000,-0.100000)"
fill="#FFFFFF" stroke="none">
<path d="M0 3060 l0 -3060 3060 0 3060 0 0 3060 0 3060 -3060 0 -3060 0 0
-3060z m4500 899 c0 -7 -25 -44 -55 -84 -54 -70 -57 -72 -108 -79 -29 -3 -622
-6 -1318 -6 -1192 0 -1268 1 -1286 18 -33 29 -122 150 -116 156 4 3 654 6
1445 6 1068 0 1438 -3 1438 -11z m-1510 -1141 l-1 -873 -32 39 c-18 22 -71 92
-119 155 l-88 115 0 588 0 588 -374 0 -374 0 -89 118 c-49 64 -92 123 -97 130
-6 9 114 12 583 12 l591 0 0 -872z m1314 860 c-16 -28 -168 -224 -183 -235
-11 -10 -103 -13 -383 -13 l-368 0 0 -588 0 -587 -87 -116 c-49 -64 -102 -133
-120 -155 l-32 -39 -1 873 0 872 591 0 c469 0 589 -3 583 -12z"/>
</g>
</svg>
